<?xml version="1.0" encoding="UTF-8" standalone="no"?>
<!-- Created with Inkscape (http://www.inkscape.org/) -->

<svg
   xmlns:dc="http://purl.org/dc/elements/1.1/"
   xmlns:cc="http://creativecommons.org/ns#"
   xmlns:rdf="http://www.w3.org/1999/02/22-rdf-syntax-ns#"
   xmlns:svg="http://www.w3.org/2000/svg"
   xmlns="http://www.w3.org/2000/svg"
   xmlns:sodipodi="http://sodipodi.sourceforge.net/DTD/sodipodi-0.dtd"
   xmlns:inkscape="http://www.inkscape.org/namespaces/inkscape"
   id="svg2774"
   sodipodi:docname="hubic-gtk-busy.svg"
   viewBox="0 0 125 125"
   sodipodi:version="0.32"
   version="1.0"
   inkscape:output_extension="org.inkscape.output.svg.inkscape"
   inkscape:version="0.91 r13725"
   width="125"
   height="125">
  <defs
     id="defs4322" />
  <sodipodi:namedview
     id="base"
     bordercolor="#666666"
     inkscape:pageshadow="2"
     guidetolerance="10"
     pagecolor="#ffffff"
     gridtolerance="10000"
     inkscape:window-height="857"
     inkscape:zoom="2.6081609"
     objecttolerance="10"
     showgrid="false"
     borderopacity="1.0"
     inkscape:current-layer="layer1"
     inkscape:cx="17.918932"
     inkscape:cy="44.999875"
     inkscape:window-y="41"
     inkscape:window-x="0"
     inkscape:window-width="1436"
     inkscape:pageopacity="0.0"
     inkscape:document-units="px"
     inkscape:window-maximized="0"
     inkscape:snap-page="false"
     showborder="true"
     borderlayer="false"
     fit-margin-top="0"
     fit-margin-left="0"
     fit-margin-right="0"
     fit-margin-bottom="0" />
  <g
     id="layer1"
     inkscape:label="Layer 1"
     inkscape:groupmode="layer"
     transform="translate(-40.31,45.061999)">
    <path
       id="path13431"
       style="fill:#ffffff;fill-opacity:1;stroke:#0a6997;stroke-width:6.15399981;stroke-linecap:round;stroke-linejoin:round;stroke-miterlimit:0.5;stroke-opacity:1"
       d="m 117.7065,-10.845499 c -9.764,0 -18.127,5.089 -22.23,12.4 -1.638,-0.915 -3.463,-1.475 -5.392,-1.475 -5.833,0 -10.686,4.692 -12.186,11.062 -2.561,-1.012 -5.516,-1.638 -8.697,-1.638 -9.541,0 -17.288,5.227 -17.288,11.663 0,5.809 6.346,10.588 14.592,11.471 -0.37,0.627 -0.661,1.254 -0.661,1.912 0,6.162 16.889,11.172 37.695,11.172 20.807,0 37.697,-5.01 37.697,-11.172 0,-0.414 -0.28,-0.799 -0.43,-1.201 0.92,0.226 1.83,0.464 2.83,0.464 5.57,0 10.07,-3.784 10.07,-8.44 0,-4.656 -4.5,-8.413 -10.07,-8.413 -0.68,0 -1.28,0.22 -1.93,0.328 0.57,-1.862 0.95,-3.77 0.95,-5.791 0,-12.323 -11.17,-22.342 -24.95,-22.342 z"
       inkscape:connector-curvature="0" />
    <g
       id="g6314"
       transform="matrix(0,0.88137247,-0.88137247,0,160.07078,-70.804097)">
      <path
         d="m 103.11538,28.490464 -11.150757,11.04866 11.150757,11.022243 0,-6.869803 c 0.2706,-0.0357 0.51049,-0.154218 0.79465,-0.154218 4.99778,0 9.04883,4.077473 9.04883,9.074538 0,2.366091 -0.94886,4.488719 -2.43534,6.100859 l 5.92165,5.921653 c 2.99938,-3.127181 4.87069,-7.347448 4.87069,-12.022512 0,-9.61287 -7.79296,-17.430823 -17.40583,-17.430823 -0.27059,0 -0.52762,0.0614 -0.79465,0.07711 l 0,-6.767563 z"
         style="color:#000000;fill:#000000;fill-rule:evenodd;stroke:#000000;stroke-width:2.2311511;stroke-linecap:round;stroke-linejoin:round"
         sodipodi:nodetypes="cccccccccccc"
         id="path1091"
         inkscape:connector-curvature="0" />
      <path
         d="m 101.34668,79.03113 11.15075,-11.04866 -11.15075,-11.022243 0,6.869803 c -0.2706,0.0357 -0.51049,0.154218 -0.79465,0.154218 -4.997786,0 -9.048836,-4.077473 -9.048836,-9.074538 0,-2.366091 0.94886,-4.488719 2.43534,-6.100859 l -5.92165,-5.921653 c -2.99938,3.127181 -4.87069,7.347448 -4.87069,12.022512 0,9.61287 7.79296,17.430823 17.405836,17.430823 0.27059,0 0.52762,-0.0614 0.79465,-0.07711 l 0,6.767563 z"
         style="color:#000000;fill:#000000;fill-rule:evenodd;stroke:#000000;stroke-width:2.2311511;stroke-linecap:round;stroke-linejoin:round"
         sodipodi:nodetypes="cccccccccccc"
         id="path1091-3"
         inkscape:connector-curvature="0" />
    </g>
  </g>
  <metadata
     id="metadata4320">
    <rdf:RDF>
      <cc:Work>
        <dc:format>image/svg+xml</dc:format>
        <dc:type
           rdf:resource="http://purl.org/dc/dcmitype/StillImage" />
        <cc:license
           rdf:resource="http://creativecommons.org/publicdomain/zero/1.0/" />
        <dc:publisher>
          <cc:Agent
             rdf:about="http://openclipart.org/">
            <dc:title>Openclipart</dc:title>
          </cc:Agent>
        </dc:publisher>
        <dc:title></dc:title>
        <dc:date>2008-02-08T23:54:06</dc:date>
        <dc:description />
        <dc:source>https://openclipart.org/detail/14715/simple-weather-symbols-by-anonymous-14715</dc:source>
        <dc:creator>
          <cc:Agent>
            <dc:title>Anonymous</dc:title>
          </cc:Agent>
        </dc:creator>
        <dc:subject>
          <rdf:Bag>
            <rdf:li>clouds</rdf:li>
            <rdf:li>icon</rdf:li>
            <rdf:li>rain</rdf:li>
            <rdf:li>snow</rdf:li>
            <rdf:li>sun</rdf:li>
            <rdf:li>symbol</rdf:li>
            <rdf:li>weather</rdf:li>
          </rdf:Bag>
        </dc:subject>
      </cc:Work>
      <cc:License
         rdf:about="http://creativecommons.org/publicdomain/zero/1.0/">
        <cc:permits
           rdf:resource="http://creativecommons.org/ns#Reproduction" />
        <cc:permits
           rdf:resource="http://creativecommons.org/ns#Distribution" />
        <cc:permits
           rdf:resource="http://creativecommons.org/ns#DerivativeWorks" />
      </cc:License>
    </rdf:RDF>
  </metadata>
</svg>
