<?xml version="1.0" encoding="UTF-8" standalone="no"?>
<!-- Created with Inkscape (http://www.inkscape.org/) -->

<svg
   xmlns:dc="http://purl.org/dc/elements/1.1/"
   xmlns:cc="http://creativecommons.org/ns#"
   xmlns:rdf="http://www.w3.org/1999/02/22-rdf-syntax-ns#"
   xmlns:svg="http://www.w3.org/2000/svg"
   xmlns="http://www.w3.org/2000/svg"
   xmlns:sodipodi="http://sodipodi.sourceforge.net/DTD/sodipodi-0.dtd"
   xmlns:inkscape="http://www.inkscape.org/namespaces/inkscape"
   id="svg2774"
   sodipodi:docname="hubic-gtk-busy.svg"
   viewBox="0 0 107.947 62.721002"
   sodipodi:version="0.32"
   version="1.0"
   inkscape:output_extension="org.inkscape.output.svg.inkscape"
   inkscape:version="0.91 r13725"
   width="107.947"
   height="62.721001">
  <defs
     id="defs4322" />
  <sodipodi:namedview
     id="base"
     bordercolor="#666666"
     inkscape:pageshadow="2"
     guidetolerance="10"
     pagecolor="#ffffff"
     gridtolerance="10000"
     inkscape:window-height="857"
     inkscape:zoom="5.2163218"
     objecttolerance="10"
     showgrid="false"
     borderopacity="1.0"
     inkscape:current-layer="layer1"
     inkscape:cx="87.827369"
     inkscape:cy="26.478846"
     inkscape:window-y="41"
     inkscape:window-x="0"
     inkscape:window-width="1436"
     inkscape:pageopacity="0.0"
     inkscape:document-units="px"
     inkscape:window-maximized="0"
     inkscape:snap-page="false"
     showborder="true"
     borderlayer="false"
     fit-margin-top="0"
     fit-margin-left="0"
     fit-margin-right="0"
     fit-margin-bottom="0" />
  <g
     id="layer1"
     inkscape:label="Layer 1"
     inkscape:groupmode="layer"
     transform="translate(-40.31,-17.217)">
    <path
       id="path13431"
       style="fill:#ffffff;fill-opacity:1;stroke:#0a6997;stroke-width:6.15399981;stroke-linecap:round;stroke-linejoin:round;stroke-miterlimit:0.5;stroke-opacity:1"
       d="m 109.18,20.294 c -9.764,0 -18.127,5.089 -22.23,12.4 -1.638,-0.915 -3.463,-1.475 -5.392,-1.475 -5.833,0 -10.686,4.692 -12.186,11.062 -2.561,-1.012 -5.516,-1.638 -8.697,-1.638 -9.541,0 -17.288,5.227 -17.288,11.663 0,5.809 6.346,10.588 14.592,11.471 -0.37,0.627 -0.661,1.254 -0.661,1.912 0,6.162 16.889,11.172 37.695,11.172 20.807,0 37.697,-5.01 37.697,-11.172 0,-0.414 -0.28,-0.799 -0.43,-1.201 0.92,0.226 1.83,0.464 2.83,0.464 5.57,0 10.07,-3.784 10.07,-8.44 0,-4.656 -4.5,-8.413 -10.07,-8.413 -0.68,0 -1.28,0.22 -1.93,0.328 0.57,-1.862 0.95,-3.77 0.95,-5.791 0,-12.323 -11.17,-22.342 -24.95,-22.342 z"
       inkscape:connector-curvature="0" />
    <g
       id="g5070"
       transform="matrix(0.44216709,0,0,0.44216709,79.869154,27.878998)">
      <path
         inkscape:connector-curvature="0"
         d="m 86.6,10.3 c 0,-0.1 0,-0.1 0,-0.1 -1.5,-2 -3.3,-3.7 -5.4,-5.3 l 0,0.1 C 79.5,6.3 77.8,7.7 76.2,9.1 75.5,8.7 74.9,8.4 74.3,8.1 73.5,7.7 72.7,7.3 71.8,7.1 71.5,7 71.2,6.9 70.9,6.9 70.7,4.7 70.5,2.5 70.2,0.3 69.2,0.1 68.2,0.1 67.1,0 66.8,0 66.5,0 66.3,0 66,0 65.7,0 65.5,0 64.5,0.1 63.6,0.1 62.7,0.3 62.4,2.4 62.2,4.6 62.1,6.8 61.7,6.8 61.4,6.9 61,7 60.9,7 60.8,7 60.7,7.1 59.9,7.3 59.1,7.7 58.3,8.1 57.6,8.4 57,8.7 56.4,9.1 54.7,7.7 53.1,6.4 51.4,5 c 0,0 0,0 -0.1,-0.1 -0.4,0.3 -0.8,0.6 -1.1,0.9 -0.7,0.5 -1.3,1.1 -1.8,1.7 -0.9,0.8 -1.6,1.8 -2.4,2.8 0,0 0,0 0.1,0 1.3,1.7 2.7,3.3 4.1,5 -0.4,0.6 -0.8,1.3 -1.1,1.9 -0.4,0.8 -0.7,1.7 -0.9,2.5 -0.2,0.4 -0.3,0.8 -0.3,1.1 -2.2,0.2 -4.4,0.4 -6.5,0.7 -0.2,1 -0.3,2 -0.3,3.1 0,1.5 0.1,3 0.4,4.4 2.1,0.2 4.2,0.4 6.4,0.6 0,0.4 0.1,0.8 0.3,1.1 0.2,0.9 0.5,1.7 0.9,2.6 0.4,0.7 0.7,1.4 1.2,2 -1.4,1.7 -2.8,3.3 -4.1,5 1.5,2.1 3.3,3.9 5.4,5.4 l 0,-0.1 c 1.6,-1.3 3.3,-2.7 4.9,-4.1 l 0.1,0 c 0.5,0.3 1.1,0.6 1.6,0.9 0.9,0.4 1.9,0.8 2.8,1 0.4,0.1 0.7,0.2 1,0.3 0.2,2.1 0.4,4.3 0.7,6.5 0.9,0.1 1.8,0.2 2.8,0.2 0.2,0 0.8,0 1.5,0 1.1,0 2.2,-0.1 3.3,-0.3 0.2,-2.1 0.4,-4.3 0.6,-6.5 0.3,-0.1 0.6,-0.2 0.9,-0.3 l 0,0 c 0.9,-0.2 1.7,-0.5 2.5,-0.9 0.7,-0.3 1.4,-0.7 2.1,-1.2 0,0.1 0,0.1 0.1,0.1 1.6,1.4 3.3,2.8 5,4.1 0.3,-0.2 0.6,-0.4 1,-0.7 0.6,-0.5 1.2,-1.1 1.7,-1.7 0.9,-0.9 1.8,-1.9 2.6,-3 -1.4,-1.7 -2.8,-3.4 -4.2,-5 0,-0.1 0,-0.1 0,-0.1 0.3,-0.5 0.6,-1.1 0.9,-1.7 0.3,-0.8 0.7,-1.6 0.9,-2.4 0,-0.1 0,-0.2 0.1,-0.2 0,-0.4 0.1,-0.7 0.2,-0.9 2.2,-0.2 4.4,-0.4 6.5,-0.6 0.2,-1 0.2,-2 0.3,-3 0,-0.3 0,-0.6 0,-0.9 0,-0.2 0,-0.5 0,-0.8 -0.1,-1 -0.1,-2 -0.3,-3 -2.1,-0.2 -4.3,-0.4 -6.5,-0.6 -0.1,-0.3 -0.2,-0.6 -0.2,-0.9 -0.3,-0.9 -0.6,-1.8 -1,-2.7 -0.3,-0.6 -0.7,-1.3 -1,-1.9 1.3,-1.6 2.7,-3.3 4.1,-5 z m -26.7,8.3 c 1.8,-1.9 4,-2.8 6.5,-2.7 2.6,-0.1 4.7,0.8 6.6,2.7 1.8,1.8 2.7,4 2.7,6.5 0,2.6 -0.9,4.7 -2.7,6.6 -1.9,1.8 -4,2.7 -6.6,2.7 -2.5,0 -4.7,-0.9 -6.5,-2.7 -1.8,-1.9 -2.7,-4 -2.7,-6.6 0,-2.5 0.9,-4.7 2.7,-6.5 z"
         id="path5072" />
      <path
         inkscape:connector-curvature="0"
         d="m 66.5,17.2 c -2.2,0 -4,0.8 -5.6,2.3 -1.5,1.6 -2.3,3.4 -2.3,5.6 0,2.2 0.8,4 2.3,5.6 l 0,0 c 1.6,1.6 3.4,2.4 5.6,2.4 2.2,0 4,-0.8 5.6,-2.4 l 0,0 c 1.6,-1.6 2.3,-3.4 2.3,-5.6 l 0,0 c 0,-2.2 -0.7,-4 -2.3,-5.6 -1.6,-1.5 -3.4,-2.3 -5.6,-2.3 z m -4.2,3.7 c 1.2,-1.1 2.6,-1.7 4.2,-1.7 1.6,0 3,0.6 4.2,1.7 1.2,1.2 1.7,2.5 1.7,4.2 l 0,0 c 0,1.7 -0.5,3.1 -1.7,4.2 -1.2,1.2 -2.6,1.8 -4.2,1.8 -1.6,0 -3,-0.6 -4.2,-1.8 -1.1,-1.1 -1.7,-2.5 -1.7,-4.2 0,-1.6 0.6,-3 1.7,-4.2 z"
         id="path5074" />
      <path
         inkscape:connector-curvature="0"
         d="m 40.8,33.6 c -0.4,-0.2 -0.7,-0.3 -1,-0.3 -1.2,-0.3 -2.4,-0.5 -3.6,-0.7 -1.1,2.7 -2,5.3 -2.9,7.9 -0.5,0 -1,0 -1.4,0 -0.2,0 -0.3,0 -0.4,0 -1.2,0.1 -2.3,0.2 -3.4,0.4 -0.9,0.1 -1.8,0.4 -2.7,0.7 -1.6,-2.3 -3.3,-4.6 -4.9,-6.8 -0.1,-0.1 -0.1,-0.1 -0.1,-0.1 -0.6,0.2 -1.2,0.4 -1.7,0.7 -1,0.4 -1.9,0.9 -2.8,1.5 -1.4,0.7 -2.7,1.6 -3.9,2.7 0,0 0,0 0,0.1 1.2,2.5 2.3,5 3.5,7.5 -0.7,0.7 -1.3,1.3 -1.9,2.1 -0.8,0.8 -1.5,1.8 -2.1,2.8 l 0,0 C 11.2,52.5 11,52.9 10.8,53.4 8,52.9 5.2,52.4 2.4,52 c -0.5,1.2 -1,2.4 -1.4,3.7 -0.4,2 -0.8,3.9 -1,5.8 2.6,1 5.2,2 7.8,3 0,0.4 0,0.9 0,1.4 0,1.1 0.1,2.3 0.4,3.5 0.1,1 0.4,2 0.7,3 -2.3,1.6 -4.5,3.2 -6.8,4.9 1.2,3 2.9,5.8 4.9,8.4 0,0 0,0 0.1,0 2.5,-1.2 5,-2.3 7.6,-3.5 l 0,0 c 0.6,0.6 1.2,1.1 1.8,1.7 0.9,0.8 2,1.5 3.2,2.2 0.3,0.2 0.7,0.4 1.1,0.7 -0.5,2.7 -0.9,5.5 -1.3,8.3 1.1,0.5 2.2,0.9 3.4,1.2 0.3,0.1 0.9,0.3 1.9,0.5 1.4,0.4 2.8,0.6 4.1,0.8 1.1,-2.7 2.1,-5.3 3,-8 0.4,0 0.8,0 1.2,0 l 0.1,0 c 1.2,0 2.3,-0.1 3.4,-0.3 1,-0.2 2,-0.5 3,-0.8 0,0 0,0.1 0.1,0.1 1.6,2.3 3.3,4.6 4.9,6.9 0.5,-0.3 1,-0.5 1.4,-0.7 1,-0.4 1.9,-0.9 2.8,-1.4 1.5,-0.9 2.9,-1.9 4.2,-3 -1.1,-2.6 -2.3,-5.1 -3.5,-7.7 l 0,0 c 0.6,-0.6 1.1,-1.2 1.7,-1.8 0.7,-0.9 1.4,-1.9 2,-2.8 0,-0.1 0.1,-0.2 0.1,-0.3 0.2,-0.3 0.4,-0.7 0.6,-1 2.8,0.5 5.6,0.9 8.4,1.4 0.5,-1.2 0.9,-2.4 1.3,-3.7 0.1,-0.3 0.2,-0.6 0.3,-1 0.1,-0.3 0.1,-0.6 0.3,-1 0.2,-1.3 0.5,-2.6 0.6,-3.8 -2.6,-1.1 -5.3,-2 -7.9,-3 0,-0.4 0,-0.7 0,-1.2 0,-1.2 -0.1,-2.5 -0.4,-3.7 -0.1,-0.9 -0.4,-1.8 -0.6,-2.7 2.3,-1.6 4.6,-3.3 6.8,-5 0,0 0,0 0.1,0 -1.2,-3 -2.8,-5.8 -5,-8.4 l 0,0 c -2.6,1.1 -5.1,2.3 -7.6,3.5 -0.7,-0.7 -1.4,-1.4 -2.1,-2 -0.9,-0.7 -1.8,-1.4 -2.8,-1.9 -0.3,-0.3 -0.7,-0.5 -1,-0.7 0.4,-2.8 0.9,-5.6 1.3,-8.4 -1.2,-0.5 -2.5,-1 -3.8,-1.4 -0.3,-0.1 -0.7,-0.2 -1,-0.2 z M 22.2,71 c -1.7,-2.9 -2.1,-5.9 -1.2,-9.1 0.8,-3.2 2.7,-5.6 5.6,-7.3 2.8,-1.6 5.9,-2 9,-1.2 3.2,0.9 5.7,2.7 7.3,5.6 1.7,2.9 2.1,5.9 1.2,9.1 -0.8,3.2 -2.7,5.6 -5.5,7.2 -3,1.7 -6,2.1 -9.1,1.2 -3.2,-0.8 -5.7,-2.7 -7.3,-5.5 z"
         id="path5076" />
      <path
         inkscape:connector-curvature="0"
         d="m 22.8,62.4 c -0.8,2.7 -0.5,5.3 0.9,7.7 l 0.1,0 c 1.4,2.5 3.5,4 6.2,4.8 2.7,0.7 5.3,0.4 7.8,-1 l 0,0 c 2.5,-1.5 4,-3.5 4.8,-6.2 l 0,-0.1 c 0.7,-2.7 0.3,-5.3 -1.1,-7.7 -1.4,-2.5 -3.5,-4.1 -6.2,-4.8 -2.7,-0.8 -5.4,-0.4 -7.8,1 -2.5,1.4 -4,3.5 -4.7,6.3 z m 6,-4 c 1.9,-1.1 3.8,-1.4 5.8,-0.8 2,0.5 3.6,1.7 4.7,3.6 1.1,1.8 1.3,3.8 0.8,5.8 -0.6,2 -1.8,3.6 -3.6,4.6 l 0,0.1 c -1.9,1 -3.8,1.3 -5.8,0.7 C 28.6,71.9 27.1,70.7 26,68.8 25,67 24.7,65.1 25.2,63 25.8,61 27,59.5 28.8,58.4 Z"
         id="path5078" />
    </g>
  </g>
  <metadata
     id="metadata4320">
    <rdf:RDF>
      <cc:Work>
        <dc:format>image/svg+xml</dc:format>
        <dc:type
           rdf:resource="http://purl.org/dc/dcmitype/StillImage" />
        <cc:license
           rdf:resource="http://creativecommons.org/publicdomain/zero/1.0/" />
        <dc:publisher>
          <cc:Agent
             rdf:about="http://openclipart.org/">
            <dc:title>Openclipart</dc:title>
          </cc:Agent>
        </dc:publisher>
        <dc:title></dc:title>
        <dc:date>2008-02-08T23:54:06</dc:date>
        <dc:description />
        <dc:source>https://openclipart.org/detail/14715/simple-weather-symbols-by-anonymous-14715</dc:source>
        <dc:creator>
          <cc:Agent>
            <dc:title>Anonymous</dc:title>
          </cc:Agent>
        </dc:creator>
        <dc:subject>
          <rdf:Bag>
            <rdf:li>clouds</rdf:li>
            <rdf:li>icon</rdf:li>
            <rdf:li>rain</rdf:li>
            <rdf:li>snow</rdf:li>
            <rdf:li>sun</rdf:li>
            <rdf:li>symbol</rdf:li>
            <rdf:li>weather</rdf:li>
          </rdf:Bag>
        </dc:subject>
      </cc:Work>
      <cc:License
         rdf:about="http://creativecommons.org/publicdomain/zero/1.0/">
        <cc:permits
           rdf:resource="http://creativecommons.org/ns#Reproduction" />
        <cc:permits
           rdf:resource="http://creativecommons.org/ns#Distribution" />
        <cc:permits
           rdf:resource="http://creativecommons.org/ns#DerivativeWorks" />
      </cc:License>
    </rdf:RDF>
  </metadata>
</svg>
